<svg xmlns="http://www.w3.org/2000/svg" viewBox="0 0 282.95 141.99"><defs><style>.cls-1{fill:#fbfcfc;}.cls-2{fill:none;}.cls-3{fill:#fff;}</style></defs><g id="Layer_1" data-name="Layer 1"><path class="cls-1" d="M100.27,64.59l4.45-2.78a11.39,11.39,0,0,0-9-4,11.2,11.2,0,0,0-7.77,4,9.16,9.16,0,0,0,0,10.35,11.3,11.3,0,0,0,9,4,11.07,11.07,0,0,0,7.83-4l-4.12-2.72a5.51,5.51,0,0,1-4.31,1.79A5.29,5.29,0,0,1,93,69.77a3.61,3.61,0,0,1-.26-5.24,5.06,5.06,0,0,1,2.85-1.6A5.54,5.54,0,0,1,100.27,64.59Z"/><path class="cls-1" d="M146.42,60.48a9.91,9.91,0,0,0-7.5-2.68,10.18,10.18,0,0,0-7.71,3.41,9.85,9.85,0,0,0-2.25,6.7,10.42,10.42,0,0,0,3.51,5.91,10.55,10.55,0,0,0,6.45,2.41,10.2,10.2,0,0,0,7.83-3.07A9.76,9.76,0,0,0,149.27,67,9.72,9.72,0,0,0,146.42,60.48Zm-3.49,9.6A5.08,5.08,0,0,1,139,71.62a5.17,5.17,0,0,1-5-4.16,5,5,0,0,1,1.13-3.35,5.05,5.05,0,0,1,3.85-1.7,4.93,4.93,0,0,1,3.75,1.33,4.41,4.41,0,0,1,.17,6.34Z"/><path class="cls-1" d="M169.13,60.48a9.91,9.91,0,0,0-7.51-2.67,10.15,10.15,0,0,0-7.7,3.4,9.94,9.94,0,0,0-2.26,6.71,10.35,10.35,0,0,0,10,8.31,10.14,10.14,0,0,0,7.84-3.06A9.84,9.84,0,0,0,172,67,9.73,9.73,0,0,0,169.13,60.48Zm-3.49,9.61a5.12,5.12,0,0,1-3.92,1.54,5.26,5.26,0,0,1-3.22-1.21,5.19,5.19,0,0,1-1.76-3,5,5,0,0,1,1.13-3.36,5.09,5.09,0,0,1,3.85-1.7,5,5,0,0,1,3.75,1.34A4.86,4.86,0,0,1,166.9,67,4.94,4.94,0,0,1,165.64,70.09Z"/><path class="cls-1" d="M212.15,60.48a9.89,9.89,0,0,0-7.5-2.67,10.12,10.12,0,0,0-7.7,3.4,9.88,9.88,0,0,0-2.26,6.71,10.52,10.52,0,0,0,3.52,5.91,10.41,10.41,0,0,0,6.44,2.4,10.12,10.12,0,0,0,7.83-3.06A9.81,9.81,0,0,0,215,67,9.82,9.82,0,0,0,212.15,60.48Zm-3.49,9.61a5.1,5.1,0,0,1-3.91,1.54,5.2,5.2,0,0,1-5-4.16,4.9,4.9,0,0,1,1.13-3.36,5.07,5.07,0,0,1,3.85-1.7,4.56,4.56,0,0,1,3.91,7.68Z"/><path class="cls-1" d="M107.77,51.25V75.68h5.32V65.32a3.75,3.75,0,0,1,4.4-2.12,3.39,3.39,0,0,1,2.37,2.12V75.68h5.71V64.93a8.56,8.56,0,0,0-4.25-6,9.32,9.32,0,0,0-8.5,0V49.79Z"/><polygon class="cls-1" points="181.28 50.12 176 51.71 176 76.25 181.28 76.25 181.28 50.12"/><polygon class="cls-1" points="270.62 57.78 270.62 76.25 265.14 76.25 265.14 59.18 270.62 57.78"/><path class="cls-2" d="M250.36,62.58a5.05,5.05,0,0,0-3.85,1.7,5,5,0,0,0-1.13,3.35,5.17,5.17,0,0,0,5,4.16,5.1,5.1,0,0,0,3.92-1.53A4.8,4.8,0,0,0,255,69.2V65.14a4.26,4.26,0,0,0-.9-1.22A5,5,0,0,0,250.36,62.58Z"/><path class="cls-1" d="M255,58v.85a11.48,11.48,0,0,0-12.45,2.58,9.85,9.85,0,0,0-2.25,6.71A10.45,10.45,0,0,0,243.82,74a10.56,10.56,0,0,0,6.44,2.4,10.79,10.79,0,0,0,4.75-.87v.72h5.61V58Zm0,11.25a4.8,4.8,0,0,1-.73,1.06,5.1,5.1,0,0,1-3.92,1.53,5.17,5.17,0,0,1-5-4.16,5,5,0,0,1,1.13-3.35,5.05,5.05,0,0,1,3.85-1.7,5,5,0,0,1,3.75,1.34,4.26,4.26,0,0,1,.9,1.22,4.15,4.15,0,0,1,0,4.06Z"/><path class="cls-1" d="M229.93,62.57V58.14h-5.6a5.15,5.15,0,0,1,1.22-3.24,5.47,5.47,0,0,1,4.38-1.74V48.28a11.2,11.2,0,0,0-6.12,1.44,11.53,11.53,0,0,0-5,6.13,1,1,0,0,0,0,.29V76.25h5.77V62.57Z"/><path class="cls-3" d="M42.28,75.62A6,6,0,0,1,48.6,74q4.82,12.84,9.64,25.67H52.9l-2.11-6.13h-9.9l-2.12,6.13H33.43Zm6.93,13.5-2.3-6.42L46,79.58h-.29l-.93,3.12-2.29,6.42Z"/><path class="cls-3" d="M60.68,99.69V75.62l4.7-1.6V99.69Z"/><path class="cls-3" d="M77.32,108a10.55,10.55,0,0,1-3.32-.48,9.21,9.21,0,0,1-2.53-1.26,8.57,8.57,0,0,1-1.79-1.7,6.7,6.7,0,0,1-1-1.86l4.48-1.8a4.28,4.28,0,0,0,1.65,2.17,4.83,4.83,0,0,0,6.06-.67,5.75,5.75,0,0,0,1.29-4V97.22h-.28A5.74,5.74,0,0,1,79.67,99a7.17,7.17,0,0,1-3.18.66,7.76,7.76,0,0,1-3.06-.63,8.24,8.24,0,0,1-2.64-1.83,9.68,9.68,0,0,1-1.86-2.86,9.33,9.33,0,0,1-.72-3.73A9.45,9.45,0,0,1,70.79,84a8.24,8.24,0,0,1,2.64-1.83,7.6,7.6,0,0,1,3.06-.64,7.17,7.17,0,0,1,3.18.66A5.85,5.85,0,0,1,81.84,84h.28v-1.9H86.6V98.44a11,11,0,0,1-.68,4,8.69,8.69,0,0,1-1.9,3,8.21,8.21,0,0,1-2.92,1.9A10.42,10.42,0,0,1,77.32,108Zm.18-12.55a4.81,4.81,0,0,0,1.7-.31,4.38,4.38,0,0,0,1.49-.94,4.72,4.72,0,0,0,1-1.51,5.15,5.15,0,0,0,.39-2.06,5.28,5.28,0,0,0-.39-2.08,4.7,4.7,0,0,0-1-1.53,4.36,4.36,0,0,0-1.49-.93,4.83,4.83,0,0,0-1.7-.32,4.69,4.69,0,0,0-1.69.32,4.27,4.27,0,0,0-1.47,1,4.76,4.76,0,0,0-1,1.53,5.64,5.64,0,0,0,0,4.12,4.57,4.57,0,0,0,1,1.51,4.4,4.4,0,0,0,1.47.94A4.68,4.68,0,0,0,77.5,95.46Z"/><path class="cls-3" d="M90.91,99.69v-16l4.69-1.59V99.69Z"/><path class="cls-3" d="M116.36,95.46a9.69,9.69,0,0,1-3.28,3.48,9.06,9.06,0,0,1-5,1.33,9.84,9.84,0,0,1-3.71-.7,9,9,0,0,1-4.91-4.91,9.93,9.93,0,0,1-.7-3.75,9.64,9.64,0,0,1,.68-3.6,9.31,9.31,0,0,1,1.9-3,9.43,9.43,0,0,1,2.89-2,8.87,8.87,0,0,1,3.68-.75,9.48,9.48,0,0,1,3.76.7,7.66,7.66,0,0,1,2.76,1.94,8.45,8.45,0,0,1,1.69,2.92,11.33,11.33,0,0,1,.57,3.66v.43a2.87,2.87,0,0,0,0,.39,2.41,2.41,0,0,0,0,.4H103.35a4.81,4.81,0,0,0,.59,1.84,4.45,4.45,0,0,0,2.56,2,5.93,5.93,0,0,0,1.62.23,4.59,4.59,0,0,0,2.67-.74,5.45,5.45,0,0,0,1.67-1.84Zm-4.26-6.81a3.18,3.18,0,0,0-.31-1,3.57,3.57,0,0,0-.79-1.07,4,4,0,0,0-1.29-.83,4.85,4.85,0,0,0-1.84-.32,4.28,4.28,0,0,0-2.66.86,4.53,4.53,0,0,0-1.61,2.4Z"/><path class="cls-3" d="M119.66,82.13h4.41v2.43h.29a4.4,4.4,0,0,1,.86-1.18,6.47,6.47,0,0,1,1.2-.94,6.7,6.7,0,0,1,1.44-.64,4.79,4.79,0,0,1,1.52-.25,5.65,5.65,0,0,1,1.59.2,3.94,3.94,0,0,1,1.13.52l-1.25,4.19a5.32,5.32,0,0,0-.95-.34,5.76,5.76,0,0,0-1.27-.12,3.89,3.89,0,0,0-1.76.38,3.77,3.77,0,0,0-1.35,1.06,5.23,5.23,0,0,0-.86,1.6,6.45,6.45,0,0,0-.3,2v8.65h-4.7Z"/><path class="cls-3" d="M140.49,100.27a10.23,10.23,0,0,1-3.06-.43,8.56,8.56,0,0,1-2.33-1.13,7.36,7.36,0,0,1-1.67-1.62,7.76,7.76,0,0,1-1-1.84l4.2-1.79a4.51,4.51,0,0,0,1.63,2,4.1,4.1,0,0,0,2.27.66,3.89,3.89,0,0,0,2-.46,1.32,1.32,0,0,0,.75-1.11,1.38,1.38,0,0,0-.63-1.17,6.48,6.48,0,0,0-2.17-.81L138,92.06a8.15,8.15,0,0,1-1.7-.58,6.43,6.43,0,0,1-1.6-1A5.13,5.13,0,0,1,133.54,89a4.15,4.15,0,0,1-.47-2,4.65,4.65,0,0,1,.56-2.29A5.28,5.28,0,0,1,135.15,83a7.5,7.5,0,0,1,2.28-1.07,10.15,10.15,0,0,1,2.81-.38,9.81,9.81,0,0,1,4.48,1,6.06,6.06,0,0,1,2.91,3.13l-4,1.65a3.15,3.15,0,0,0-1.47-1.5,4.46,4.46,0,0,0-1.94-.47,3.69,3.69,0,0,0-1.76.41,1.22,1.22,0,0,0-.75,1.06,1.08,1.08,0,0,0,.63,1,7.58,7.58,0,0,0,1.7.65l2.69.64a7.81,7.81,0,0,1,4,2.06A4.8,4.8,0,0,1,148,94.5a4.66,4.66,0,0,1-.54,2.18,5.93,5.93,0,0,1-1.52,1.85,7.46,7.46,0,0,1-2.37,1.27A9.56,9.56,0,0,1,140.49,100.27Z"/><path class="cls-1" d="M76.91,76.61a10.3,10.3,0,0,1-3.07-.43,8.71,8.71,0,0,1-2.33-1.13,7.57,7.57,0,0,1-1.67-1.62,7.76,7.76,0,0,1-1-1.84L73,69.8a4.51,4.51,0,0,0,1.63,2,4.11,4.11,0,0,0,2.28.66A3.85,3.85,0,0,0,79,72a1.32,1.32,0,0,0,.75-1.11,1.38,1.38,0,0,0-.63-1.17,6.41,6.41,0,0,0-2.16-.81l-2.48-.53a8.15,8.15,0,0,1-1.7-.58,6.43,6.43,0,0,1-1.6-1A5.13,5.13,0,0,1,70,65.35a4.15,4.15,0,0,1-.47-2A4.65,4.65,0,0,1,70,61.05a5.28,5.28,0,0,1,1.52-1.71,7.5,7.5,0,0,1,2.28-1.07,10.15,10.15,0,0,1,2.81-.38,9.88,9.88,0,0,1,4.49,1A6.09,6.09,0,0,1,84,62L80,63.66a3.15,3.15,0,0,0-1.47-1.5,4.46,4.46,0,0,0-1.94-.47,3.62,3.62,0,0,0-1.75.41,1.21,1.21,0,0,0-.76,1.06,1.08,1.08,0,0,0,.63,1,7.77,7.77,0,0,0,1.7.65l2.69.64a7.77,7.77,0,0,1,4,2.06,4.8,4.8,0,0,1,1.31,3.36A4.66,4.66,0,0,1,83.86,73a5.93,5.93,0,0,1-1.52,1.85A7.46,7.46,0,0,1,80,76.14,9.54,9.54,0,0,1,76.91,76.61Z"/><path class="cls-3" d="M26.74,64.62a8.08,8.08,0,0,1-3.55,1.18,7.87,7.87,0,0,1-5.46-1.59c-.73-.54-1.53-1-2.25-1.54a12.83,12.83,0,0,1-5.23-8.77,12.53,12.53,0,0,1,3.11-10.21A13.29,13.29,0,0,1,19,39.83a1.31,1.31,0,0,0,.6-.46,14.21,14.21,0,0,1,14.71-5.9,1.16,1.16,0,0,0,.69-.06,11.2,11.2,0,0,1,13.54,2.71.9.9,0,0,0,.91.34,9.18,9.18,0,0,1,7.26,2.63,8.68,8.68,0,0,1,2.4,9.16.65.65,0,0,0,.23.77,8.71,8.71,0,0,1-2.6,14.66,1.1,1.1,0,0,0-.46.47,11.43,11.43,0,0,1-7.78,5.77,11,11,0,0,1-4.81,0,.88.88,0,0,0-.88.21Q37.77,74.57,32.68,79l-.29.24,2.1-10.15A11.43,11.43,0,0,1,26.74,64.62ZM14.66,58.7c.16-.9.32-1.78.47-2.66a.68.68,0,0,0-.08-.47A3.61,3.61,0,0,1,17.61,50a3.8,3.8,0,0,1,3.75,1.7,3.6,3.6,0,0,1-2.74,5.47,10.11,10.11,0,0,1-1.35,0,4.92,4.92,0,0,0,1.07,4.52,5.54,5.54,0,0,0,6.87,1.2c.25-.14.37-.26.24-.55a10.61,10.61,0,0,1-.14-7.91.59.59,0,0,0-.07-.5,3.58,3.58,0,0,1-.68-2.85,3.73,3.73,0,0,1,4.2-2.9,3.69,3.69,0,0,1,3.15,3,3.61,3.61,0,0,1-2.85,4.1,11.88,11.88,0,0,1-1.63.12,8.17,8.17,0,0,0,.74,7.22c1.95,3.14,5,4.54,9.14,4.25L36,73l4.56-4.16c-.56-.39-1.26-.81-1.88-1.31a11,11,0,0,1-4-6.65.9.9,0,0,0-.37-.6,3.59,3.59,0,0,1-1.58-5.15A3.81,3.81,0,0,1,38,54a3.56,3.56,0,0,1-.65,6.37c-.28.12-.38.24-.28.49a19.28,19.28,0,0,0,1.06,2.57,9.33,9.33,0,0,0,14.93,1.38c.11-.12.2-.26.23-.29-1.08-.24-2.14-.45-3.18-.71a.91.91,0,0,0-.77.07,3.73,3.73,0,0,1-4.16-.21,3.55,3.55,0,0,1-.82-4.92,3.79,3.79,0,0,1,6.13,0,3.62,3.62,0,0,1,.56,3,3,3,0,0,0,.39.13,6.69,6.69,0,0,0,4.8-.44A6.48,6.48,0,0,0,58,50.8c-.43.47-.85.91-1.24,1.37a.55.55,0,0,0-.11.41,3.67,3.67,0,0,1-.38,2.18,3.79,3.79,0,0,1-6.24.6,3.49,3.49,0,0,1-.75-2.92,3.71,3.71,0,0,1,4.45-2.86,10.78,10.78,0,0,1,1.67.67,6.74,6.74,0,0,0-1.28-10.41,7,7,0,0,0-3.85-1.14c.16.46.29.87.45,1.28a.48.48,0,0,0,.28.24,3.65,3.65,0,0,1,2.61,4.2A3.77,3.77,0,0,1,49,47.2a3.62,3.62,0,0,1-2.62-4.54,3.82,3.82,0,0,1,2-2.28,8.53,8.53,0,0,0-10.2-5.63,40.31,40.31,0,0,1,3.16,2.57,12.85,12.85,0,0,1,3.9,8.94.91.91,0,0,0,.25.65A3.57,3.57,0,0,1,47,50.62a3.71,3.71,0,0,1-3,2.85,3.79,3.79,0,0,1-3.78-1.55,3.39,3.39,0,0,1-.36-3.35,3.75,3.75,0,0,1,3-2.28,1.1,1.1,0,0,0,0-.16,2.44,2.44,0,0,0,0-.27,11.13,11.13,0,0,0-2.17-5.78,11.69,11.69,0,0,0-11.81-4.41,11.43,11.43,0,0,0-6,3.32l.06,0h.37a13.54,13.54,0,0,1,4.9.78.78.78,0,0,0,.84-.11,3.76,3.76,0,0,1,4.69.18,3.54,3.54,0,0,1,.38,5,3.79,3.79,0,0,1-5.44.28,3.35,3.35,0,0,1-1.13-2.77c0-.39-.12-.53-.51-.64a11.05,11.05,0,0,0-10.5,2,10.38,10.38,0,0,0-3.68,11.25A9.76,9.76,0,0,0,14.66,58.7Zm33.82-15a1.42,1.42,0,0,0,2.83,0,1.42,1.42,0,0,0-2.83,0Zm5.83,9.44a1.41,1.41,0,0,0-2.82,0,1.43,1.43,0,0,0,1.42,1.36A1.41,1.41,0,0,0,54.31,53.12Zm-34.73.46a1.42,1.42,0,0,0-1.37-1.4,1.43,1.43,0,0,0-1.45,1.39,1.41,1.41,0,0,0,2.82,0Zm17.77,3.47A1.4,1.4,0,0,0,36,55.67a1.41,1.41,0,0,0-1.45,1.38,1.43,1.43,0,0,0,1.42,1.36A1.4,1.4,0,0,0,37.35,57.05ZM31.26,41.24a1.39,1.39,0,0,0-1.42,1.34,1.42,1.42,0,0,0,2.83,0A1.39,1.39,0,0,0,31.26,41.24Zm12.06,10a1.37,1.37,0,1,0-1.4-1.37A1.41,1.41,0,0,0,43.32,51.27Zm5.5,9.51a1.4,1.4,0,0,0-2.79,0,1.4,1.4,0,0,0,2.79,0Zm-19.18-9a1.42,1.42,0,1,0-1.41,1.37A1.41,1.41,0,0,0,29.64,51.75Z"/><rect class="cls-3" x="90.91" y="103.81" width="56.56" height="0.5"/></g></svg>