<svg xmlns="http://www.w3.org/2000/svg" viewBox="0 0 301.34 139.99"><defs><style>.cls-1{fill:#211c58;}</style></defs><g id="Layer_1" data-name="Layer 1"><path class="cls-1" d="M110.57,60.68,115,57.89a11.43,11.43,0,0,0-9-4,11.25,11.25,0,0,0-7.77,4,9.18,9.18,0,0,0,0,10.36,11.32,11.32,0,0,0,9,4,11.07,11.07,0,0,0,7.83-4l-4.11-2.72a5.54,5.54,0,0,1-4.32,1.79,5.27,5.27,0,0,1-3.25-1.46,3.6,3.6,0,0,1-.27-5.24,5.1,5.1,0,0,1,2.86-1.6A5.53,5.53,0,0,1,110.57,60.68Z"/><path class="cls-1" d="M156.72,56.57a9.87,9.87,0,0,0-7.5-2.68,10.14,10.14,0,0,0-7.71,3.41,9.82,9.82,0,0,0-2.25,6.7,10.4,10.4,0,0,0,3.52,5.91,10.51,10.51,0,0,0,6.44,2.41,10.2,10.2,0,0,0,7.83-3.07,9.88,9.88,0,0,0,2.53-6.15A9.8,9.8,0,0,0,156.72,56.57Zm-3.49,9.6a5.11,5.11,0,0,1-3.92,1.54,5.26,5.26,0,0,1-3.22-1.21,5.32,5.32,0,0,1-1.76-3,5,5,0,0,1,1.13-3.35,5.12,5.12,0,0,1,3.85-1.71,5,5,0,0,1,3.76,1.34,4.42,4.42,0,0,1,.16,6.34Z"/><path class="cls-1" d="M179.43,56.57a9.89,9.89,0,0,0-7.5-2.67,10.11,10.11,0,0,0-7.71,3.4A9.85,9.85,0,0,0,162,64a10.33,10.33,0,0,0,10,8.31,10.12,10.12,0,0,0,7.83-3.07,9.76,9.76,0,0,0,2.52-6.14A9.73,9.73,0,0,0,179.43,56.57Zm-3.49,9.61A5.06,5.06,0,0,1,172,67.71a5.18,5.18,0,0,1-5-4.15,4.81,4.81,0,0,1,5-5.06,5,5,0,0,1,3.75,1.34,4.41,4.41,0,0,1,.17,6.34Z"/><path class="cls-1" d="M222.45,56.57A9.89,9.89,0,0,0,215,53.9a10.08,10.08,0,0,0-7.7,3.4A9.88,9.88,0,0,0,205,64a10.35,10.35,0,0,0,10,8.31,10.13,10.13,0,0,0,7.84-3.07,9.82,9.82,0,0,0,2.52-6.14A9.76,9.76,0,0,0,222.45,56.57ZM219,66.18a5.06,5.06,0,0,1-3.92,1.53,5.27,5.27,0,0,1-3.22-1.2,5.19,5.19,0,0,1-1.76-3,5,5,0,0,1,1.13-3.36,5,5,0,0,1,3.85-1.7,5,5,0,0,1,3.75,1.34,4.85,4.85,0,0,1,1.43,3.27A4.94,4.94,0,0,1,219,66.18Z"/><path class="cls-1" d="M118.08,47.34V71.77h5.31V61.41a3.74,3.74,0,0,1,4.4-2.12,3.37,3.37,0,0,1,2.37,2.12V71.77h5.71V61a8.55,8.55,0,0,0-4.25-6,9.29,9.29,0,0,0-8.5,0V45.87Z"/><polygon class="cls-1" points="191.58 46.21 186.3 47.8 186.3 72.34 191.58 72.34 191.58 46.21"/><polygon class="cls-1" points="280.92 53.87 280.92 72.34 275.44 72.34 275.44 55.27 280.92 53.87"/><path class="cls-1" d="M265.31,54v.85a10.31,10.31,0,0,0-4.74-.83,10.18,10.18,0,0,0-7.71,3.41,9.83,9.83,0,0,0-2.25,6.7,10.4,10.4,0,0,0,3.52,5.91,10.51,10.51,0,0,0,6.44,2.41,10.67,10.67,0,0,0,4.74-.88v.73h5.61V54Zm0,11.24a4.11,4.11,0,0,1-.73,1.06,5.07,5.07,0,0,1-3.92,1.54,5.17,5.17,0,0,1-5-4.16,5,5,0,0,1,1.13-3.35,5.05,5.05,0,0,1,3.85-1.7A5,5,0,0,1,264.42,60a4.59,4.59,0,0,1,.89,1.23,4.78,4.78,0,0,1,.53,2A5,5,0,0,1,265.31,65.28Z"/><path class="cls-1" d="M240.23,58.65V54.22h-5.6A5.21,5.21,0,0,1,235.85,51a5.49,5.49,0,0,1,4.38-1.75V44.36a11.26,11.26,0,0,0-6.12,1.45,11.45,11.45,0,0,0-5,6.13.69.69,0,0,0-.05.28V72.34h5.77V58.65Z"/><path class="cls-1" d="M52.58,71.7a6,6,0,0,1,6.32-1.59Q63.72,83,68.55,95.78H63.2l-2.11-6.13h-9.9l-2.11,6.13H43.73Zm6.93,13.5-2.3-6.41-.93-3.12H56l-.94,3.12L52.77,85.2Z"/><path class="cls-1" d="M71,95.78V71.7l4.7-1.59V95.78Z"/><path class="cls-1" d="M87.62,104.1a10.6,10.6,0,0,1-3.32-.48,9.58,9.58,0,0,1-2.52-1.26,8.39,8.39,0,0,1-1.8-1.7,6.75,6.75,0,0,1-1-1.87L83.42,97a4.32,4.32,0,0,0,1.65,2.17,4.53,4.53,0,0,0,2.55.77,4.47,4.47,0,0,0,3.51-1.44,5.75,5.75,0,0,0,1.29-4V93.31h-.28A5.83,5.83,0,0,1,90,95.12a7.17,7.17,0,0,1-3.18.66,7.6,7.6,0,0,1-3.06-.64,7.94,7.94,0,0,1-2.64-1.83,9.5,9.5,0,0,1-1.86-2.85,9.36,9.36,0,0,1-.72-3.73,9.45,9.45,0,0,1,2.58-6.62,7.94,7.94,0,0,1,2.64-1.83,7.6,7.6,0,0,1,3.06-.64A7.17,7.17,0,0,1,90,78.3a5.83,5.83,0,0,1,2.17,1.81h.28v-1.9h4.49V94.53a10.91,10.91,0,0,1-.69,4,8.5,8.5,0,0,1-1.9,3,8.34,8.34,0,0,1-2.92,1.9A10.34,10.34,0,0,1,87.62,104.1Zm.18-12.55a4.61,4.61,0,0,0,1.7-.32A4.36,4.36,0,0,0,91,90.3a4.57,4.57,0,0,0,1-1.51,5.15,5.15,0,0,0,.39-2.06A5.25,5.25,0,0,0,92,84.65a4.55,4.55,0,0,0-1-1.53,4.36,4.36,0,0,0-1.49-.93,4.83,4.83,0,0,0-1.7-.32,4.73,4.73,0,0,0-1.69.32,4.13,4.13,0,0,0-1.47,1,4.93,4.93,0,0,0-1,1.53,5.64,5.64,0,0,0,0,4.12,4.72,4.72,0,0,0,1,1.51,4.37,4.37,0,0,0,1.47.93A4.53,4.53,0,0,0,87.8,91.55Z"/><path class="cls-1" d="M101.21,95.78v-16l4.69-1.6V95.78Z"/><path class="cls-1" d="M126.67,91.55A10,10,0,0,1,123.38,95a9.13,9.13,0,0,1-5,1.33,9.76,9.76,0,0,1-3.71-.7,8.91,8.91,0,0,1-4.92-4.92A9.85,9.85,0,0,1,109,87a9.54,9.54,0,0,1,.69-3.61,9.15,9.15,0,0,1,4.78-5,8.87,8.87,0,0,1,3.68-.75,9.48,9.48,0,0,1,3.76.7,7.63,7.63,0,0,1,2.76,1.93,8.34,8.34,0,0,1,1.69,2.93,11.31,11.31,0,0,1,.57,3.65v.43a3,3,0,0,0,0,.4,1.61,1.61,0,0,0,0,.39H113.65a5,5,0,0,0,.59,1.85,4.63,4.63,0,0,0,1.11,1.29,4.27,4.27,0,0,0,1.45.75,5.58,5.58,0,0,0,1.62.24,4.59,4.59,0,0,0,2.67-.74,5.39,5.39,0,0,0,1.67-1.85Zm-4.27-6.81a3.18,3.18,0,0,0-.31-1,3.74,3.74,0,0,0-.79-1.08A4,4,0,0,0,120,81.8a4.66,4.66,0,0,0-1.84-.32,4.28,4.28,0,0,0-2.66.86,4.53,4.53,0,0,0-1.61,2.4Z"/><path class="cls-1" d="M130,78.21h4.41v2.44h.29a4.63,4.63,0,0,1,.86-1.18,6.47,6.47,0,0,1,1.2-.94,6.73,6.73,0,0,1,1.44-.65,5.07,5.07,0,0,1,1.52-.24,5.77,5.77,0,0,1,1.6.2,3.93,3.93,0,0,1,1.13.52l-1.26,4.19a4.44,4.44,0,0,0-1-.34,5.71,5.71,0,0,0-1.27-.13,4.05,4.05,0,0,0-1.76.38,3.87,3.87,0,0,0-1.34,1.07,4.92,4.92,0,0,0-.86,1.6,6.12,6.12,0,0,0-.31,2v8.65H130Z"/><path class="cls-1" d="M150.8,96.36a10.3,10.3,0,0,1-3.07-.43,8.71,8.71,0,0,1-2.33-1.13,7.57,7.57,0,0,1-1.67-1.62,8,8,0,0,1-1-1.84l4.2-1.8a4.49,4.49,0,0,0,1.63,2,4.11,4.11,0,0,0,2.28.66,3.85,3.85,0,0,0,2-.46,1.34,1.34,0,0,0,.75-1.12,1.37,1.37,0,0,0-.63-1.16,6.41,6.41,0,0,0-2.16-.81l-2.48-.54a8.71,8.71,0,0,1-1.7-.57,6.74,6.74,0,0,1-1.6-1,5.13,5.13,0,0,1-1.18-1.47,4.2,4.2,0,0,1-.47-2,4.69,4.69,0,0,1,.56-2.3,5.35,5.35,0,0,1,1.52-1.7A7.27,7.27,0,0,1,147.73,78a9.79,9.79,0,0,1,2.81-.38,10,10,0,0,1,4.49,1,6.11,6.11,0,0,1,2.9,3.14l-4.05,1.65a3.15,3.15,0,0,0-1.47-1.5,4.46,4.46,0,0,0-1.94-.47,3.62,3.62,0,0,0-1.75.41,1.21,1.21,0,0,0-.76,1.06,1.08,1.08,0,0,0,.63,1,7.33,7.33,0,0,0,1.7.64l2.69.65a7.77,7.77,0,0,1,4,2.06,4.78,4.78,0,0,1,1.31,3.35,4.67,4.67,0,0,1-.54,2.19,6,6,0,0,1-1.52,1.85,7.66,7.66,0,0,1-2.37,1.27A9.54,9.54,0,0,1,150.8,96.36Z"/><path class="cls-1" d="M87.21,72.7a10.3,10.3,0,0,1-3.07-.43,8.86,8.86,0,0,1-2.33-1.13,7.57,7.57,0,0,1-1.67-1.62,8,8,0,0,1-1-1.84l4.2-1.8a4.56,4.56,0,0,0,1.63,2,4.11,4.11,0,0,0,2.28.66,3.85,3.85,0,0,0,2-.46A1.34,1.34,0,0,0,90,67a1.39,1.39,0,0,0-.62-1.16A6.57,6.57,0,0,0,87.21,65l-2.48-.54a8.29,8.29,0,0,1-1.7-.57,6.74,6.74,0,0,1-1.6-1,5.31,5.31,0,0,1-1.18-1.47,4.2,4.2,0,0,1-.46-2,4.69,4.69,0,0,1,.55-2.3,5.35,5.35,0,0,1,1.52-1.7,7.27,7.27,0,0,1,2.28-1.07A9.81,9.81,0,0,1,87,54a10,10,0,0,1,4.48,1,6.11,6.11,0,0,1,2.9,3.14l-4,1.65a3.07,3.07,0,0,0-1.47-1.5,4.43,4.43,0,0,0-1.94-.47,3.65,3.65,0,0,0-1.75.41,1.23,1.23,0,0,0-.76,1.06,1.08,1.08,0,0,0,.63,1,7.26,7.26,0,0,0,1.71.64l2.68.65a7.77,7.77,0,0,1,4,2.06,4.78,4.78,0,0,1,1.31,3.35,4.67,4.67,0,0,1-.54,2.19A5.9,5.9,0,0,1,92.64,71a7.66,7.66,0,0,1-2.37,1.27A9.54,9.54,0,0,1,87.21,72.7Z"/><path class="cls-1" d="M37,60.71a8,8,0,0,1-3.55,1.17A7.87,7.87,0,0,1,28,60.3c-.73-.54-1.53-1-2.25-1.55A12.78,12.78,0,0,1,20.55,50a12.51,12.51,0,0,1,3.11-10.2,13.29,13.29,0,0,1,5.67-3.86,1.31,1.31,0,0,0,.6-.46,13.86,13.86,0,0,1,8.69-5.89,14,14,0,0,1,6,0,1.16,1.16,0,0,0,.69-.06,11.2,11.2,0,0,1,13.54,2.71.92.92,0,0,0,.91.34A9.19,9.19,0,0,1,67,35.17a8.7,8.7,0,0,1,2.41,9.17.62.62,0,0,0,.22.76,8.72,8.72,0,0,1-2.6,14.67,1.13,1.13,0,0,0-.46.46A11.4,11.4,0,0,1,58.83,66,11,11,0,0,1,54,66a.88.88,0,0,0-.88.2c-3.37,3-6.77,5.91-10.15,8.86l-.3.24,2.1-10.15A11.5,11.5,0,0,1,37,60.71ZM25,54.79c.16-.9.33-1.78.47-2.67a.76.76,0,0,0-.07-.47A3.63,3.63,0,0,1,24.8,49a3.72,3.72,0,0,1,3.11-2.93,3.8,3.8,0,0,1,3.75,1.7,3.6,3.6,0,0,1-2.73,5.47,10.26,10.26,0,0,1-1.36,0,5,5,0,0,0,1.07,4.52A5.54,5.54,0,0,0,35.51,59c.25-.14.37-.26.25-.56a10.53,10.53,0,0,1-.15-7.9.59.59,0,0,0-.07-.5,3.63,3.63,0,0,1-.68-2.85,3.75,3.75,0,0,1,7.35.1,3.6,3.6,0,0,1-2.85,4.09,11.58,11.58,0,0,1-1.63.13,8.18,8.18,0,0,0,.75,7.22c1.94,3.14,5,4.54,9.13,4.25l-1.27,6.16L50.9,65c-.55-.38-1.26-.8-1.87-1.3A11.06,11.06,0,0,1,45,57a.89.89,0,0,0-.36-.6,3.58,3.58,0,0,1-1.59-5.15,3.79,3.79,0,0,1,5.24-1.15,3.56,3.56,0,0,1-.64,6.36c-.28.12-.38.25-.28.5a16.94,16.94,0,0,0,1.06,2.57,9.32,9.32,0,0,0,14.92,1.38c.11-.12.2-.26.24-.3-1.09-.23-2.14-.44-3.19-.7a.91.91,0,0,0-.77.07,3.73,3.73,0,0,1-4.16-.22,3.54,3.54,0,0,1-.82-4.91,3.79,3.79,0,0,1,6.13,0,3.61,3.61,0,0,1,.56,3c.14,0,.26.1.39.13a6.74,6.74,0,0,0,4.8-.44,6.47,6.47,0,0,0,1.72-10.64c-.43.47-.85.91-1.24,1.36a.57.57,0,0,0-.11.42,3.67,3.67,0,0,1-.38,2.18,3.79,3.79,0,0,1-6.24.6,3.5,3.5,0,0,1-.75-2.93A3.71,3.71,0,0,1,64,45.67a11.31,11.31,0,0,1,1.68.67,6.75,6.75,0,0,0-1.29-10.41,7,7,0,0,0-3.85-1.14c.16.45.29.87.45,1.28a.48.48,0,0,0,.28.24,3.65,3.65,0,0,1,2.61,4.2,3.77,3.77,0,0,1-4.6,2.78,3.62,3.62,0,0,1-2.63-4.54,3.82,3.82,0,0,1,2-2.28,8.52,8.52,0,0,0-10.19-5.63,37.65,37.65,0,0,1,3.15,2.57,12.81,12.81,0,0,1,3.9,8.94.92.92,0,0,0,.25.65,3.56,3.56,0,0,1,1.54,3.71,3.69,3.69,0,0,1-3,2.84A3.76,3.76,0,0,1,50.55,48a3.39,3.39,0,0,1-.37-3.36,3.74,3.74,0,0,1,3-2.27,1.43,1.43,0,0,0,0-.16,2.72,2.72,0,0,0,0-.28A11.11,11.11,0,0,0,51,36.17a11.67,11.67,0,0,0-11.82-4.41,11.45,11.45,0,0,0-6,3.31s0,.06,0,.06h.37a13.8,13.8,0,0,1,4.91.77.76.76,0,0,0,.83-.1A3.73,3.73,0,0,1,44,36a3.53,3.53,0,0,1,.38,5,3.78,3.78,0,0,1-5.43.28,3.34,3.34,0,0,1-1.14-2.77c0-.4-.12-.53-.51-.64a11,11,0,0,0-10.5,2,10.37,10.37,0,0,0-3.68,11.25A9.84,9.84,0,0,0,25,54.79Zm33.83-15a1.41,1.41,0,1,0,1.42-1.35A1.42,1.42,0,0,0,58.79,39.76Zm5.82,9.44a1.41,1.41,0,1,0-1.4,1.38A1.41,1.41,0,0,0,64.61,49.2Zm-34.73.47a1.41,1.41,0,0,0-1.37-1.4,1.38,1.38,0,1,0,1.37,1.4Zm17.77,3.47a1.39,1.39,0,0,0-1.38-1.38,1.41,1.41,0,0,0-1.45,1.38,1.43,1.43,0,0,0,1.42,1.36A1.41,1.41,0,0,0,47.65,53.14ZM41.56,37.33a1.38,1.38,0,0,0-1.42,1.34,1.42,1.42,0,0,0,2.83,0A1.39,1.39,0,0,0,41.56,37.33Zm12.06,10A1.39,1.39,0,0,0,55.05,46a1.42,1.42,0,0,0-2.83,0A1.4,1.4,0,0,0,53.62,47.35Zm5.5,9.52a1.36,1.36,0,0,0-1.41-1.35,1.37,1.37,0,1,0,0,2.73A1.36,1.36,0,0,0,59.12,56.87Zm-19.18-9a1.42,1.42,0,0,0-2.83,0,1.42,1.42,0,0,0,2.83,0Z"/><rect class="cls-1" x="101.21" y="99.9" width="56.56" height="0.5"/></g></svg>